<?xml version="1.0" encoding="utf-8"?>
<!-- Generator: Adobe Illustrator 19.0.0, SVG Export Plug-In . SVG Version: 6.00 Build 0)  -->
<svg version="1.1" id="Layer_1" xmlns="http://www.w3.org/2000/svg" xmlns:xlink="http://www.w3.org/1999/xlink" x="0px" y="0px"
	 viewBox="0 0 96 96" style="enable-background:new 0 0 96 96;" xml:space="preserve">
<style type="text/css">
	.st0{fill:#3498DB;}
	.st1{fill:#FFFFFF;}
</style>
<g id="XMLID_1_">
	<path id="XMLID_3_" class="st0" d="M23.2,20.5h49.5c1.5,0,2.7,1.2,2.7,2.7v49.5c0,1.5-1.2,2.7-2.7,2.7H23.2c-1.5,0-2.7-1.2-2.7-2.7
		V23.2C20.5,21.7,21.7,20.5,23.2,20.5z"/>
	<path id="XMLID_8_" class="st1" d="M48,51.2l15.9-13.8H32.1L48,51.2z M43.7,49.7l4.3,3.5l4.2-3.5l11.6,10H32.1L43.7,49.7z
		 M31.1,58.6V38.5l11.6,10L31.1,58.6z M64.9,58.6V38.5l-11.6,10L64.9,58.6z"/>
</g>
</svg>
